<svg xmlns="http://www.w3.org/2000/svg" viewBox="0 0 132.29 132.29">
  <g transform="translate(0 -164.708)">
    <text x="18.42" y="258.99" fill="#45a6cf" stroke-width="9.02" stroke-miterlimit="5" style="line-height:1.25;-inkscape-font-specification:Consolas;text-align:start" font-size="88.17" font-family="Consolas">
      <tspan x="18.42" y="258.99">MT</tspan>
    </text>
    <circle cx="66.15" cy="230.85" r="64.87" fill="none" stroke="#6ebad8" stroke-width="2.56" stroke-miterlimit="5"/>
    <path fill="#45a6cf" d="M87.58 233.97v-24.8h-16.8v-6.36h40.68v6.38H95.04v49.64H87.6z"/>
    <path fill="#45a6cf" d="M58.6 296.45C28.1 292.6 4.43 269.07.65 238.87c-.66-5.27-.26-16.1.76-20.94 5.5-25.87 25-45.75 50.4-51.44 14.7-3.3 30-1.5 43.48 5.1 16.35 8.03 28.74 22.6 34.1 40.14 1.76 5.73 2.33 9.66 2.53 17.32.17 6.53.1 8.04-.62 12.25-2.52 14.85-8.87 26.86-19.7 37.2-9.18 8.8-20.95 14.86-33.37 17.16-4.8.9-15.2 1.28-19.56.73zm14.24-2.25c28.1-3.2 50.25-23.53 55.86-51.2.74-3.62.85-5.3.84-12.4-.02-7.08-.14-8.73-.87-12.1-2.68-12.46-8.08-22.75-16.55-31.56-5.92-6.16-11.57-10.25-19-13.77-19.7-9.3-43.18-7.7-61.5 4.2-14.5 9.4-24.27 23.77-28.05 41.2-.7 3.3-.83 4.97-.83 12.23 0 7.35.1 8.87.84 12.3 3.67 16.9 12.92 30.93 26.55 40.25 9.16 6.27 18.4 9.6 30.4 11 2.52.3 9.17.2 12.3-.15z"/>
  </g>
</svg>
